<?xml version="1.0" standalone="no"?>
<!DOCTYPE svg PUBLIC "-//W3C//DTD SVG 20010904//EN"
 "http://www.w3.org/TR/2001/REC-SVG-20010904/DTD/svg10.dtd">
<svg version="1.0" xmlns="http://www.w3.org/2000/svg"
 width="390.000000pt" height="462.000000pt" viewBox="0 0 390.000000 462.000000"
 preserveAspectRatio="xMidYMid meet">
<metadata>
Created by potrace 1.11, written by Peter Selinger 2001-2013
</metadata>
<g transform="translate(0.000000,462.000000) scale(0.100000,-0.100000)"
fill="#000000" stroke="none">
<path d="M537 4613 c-1 -1 -27 -3 -57 -4 -205 -10 -384 -155 -456 -369 -18
-53 -18 -133 -18 -1930 l0 -1875 23 -70 c66 -195 225 -330 416 -353 28 -3 714
-6 1525 -6 1190 0 1486 3 1530 13 197 48 359 221 388 416 3 22 6 875 6 1895 0
1774 -1 1857 -18 1910 -31 93 -92 191 -151 243 -66 57 -178 109 -265 124 -30
4 -2919 11 -2923 6z m2914 -217 c97 -22 170 -81 211 -171 23 -50 23 -52 26
-547 l3 -498 -1741 0 -1741 0 3 498 c3 485 4 498 25 544 40 87 114 151 203
174 69 19 2932 19 3011 0z m232 -1425 c4 -1 7 -299 7 -664 l0 -663 -1740 0
-1740 0 0 662 c0 433 3 663 10 666 8 2 3441 2 3463 -1z m7 -2015 c-1 -336 -4
-494 -12 -522 -26 -86 -85 -154 -168 -193 l-55 -26 -1491 -2 c-1651 -3 -1540
-7 -1630 61 -52 38 -82 82 -105 149 -17 47 -18 97 -19 534 l0 481 1740 1 1740
0 0 -483z"/>
<path d="M1395 3984 c-43 -22 -55 -47 -57 -114 -2 -84 63 -198 136 -238 73
-39 101 -42 476 -42 375 0 403 3 476 42 136 74 185 316 73 357 -68 24 -123
-15 -140 -101 -19 -97 -3 -93 -416 -93 -405 0 -384 -5 -403 95 -17 88 -80 129
-145 94z"/>
<path d="M1395 2349 c-66 -34 -76 -132 -26 -240 29 -62 77 -105 147 -134 59
-24 61 -24 429 -24 328 0 376 2 422 18 103 35 165 106 187 215 19 94 2 143
-59 166 -70 26 -128 -23 -140 -119 -5 -41 -35 -70 -74 -72 -14 -1 -172 -2
-350 -3 -291 -1 -327 1 -352 16 -16 10 -30 26 -31 35 -5 60 -19 100 -42 122
-27 25 -82 35 -111 20z"/>
<path d="M1415 922 c-56 -12 -87 -74 -74 -150 17 -112 82 -197 178 -233 53
-20 76 -21 396 -23 360 -1 422 3 490 34 117 53 198 247 138 329 -64 84 -171
42 -186 -73 -3 -21 -15 -48 -26 -60 -21 -21 -28 -21 -381 -21 -412 0 -391 -5
-410 93 -5 29 -18 61 -28 72 -21 23 -67 38 -97 32z"/>
</g>
</svg>
