<?xml version="1.0" standalone="no"?>
<!DOCTYPE svg PUBLIC "-//W3C//DTD SVG 20010904//EN"
 "http://www.w3.org/TR/2001/REC-SVG-20010904/DTD/svg10.dtd">
<svg version="1.0" xmlns="http://www.w3.org/2000/svg"
 width="512.000000pt" height="512.000000pt" viewBox="0 0 512.000000 512.000000"
 preserveAspectRatio="xMidYMid meet">
<metadata>
Created by potrace 1.11, written by Peter Selinger 2001-2013
</metadata>
<g transform="translate(0.000000,512.000000) scale(0.100000,-0.100000)"
fill="#000000" stroke="none">
<path d="M1044 5101 c-46 -21 -78 -51 -102 -96 -14 -27 -20 -105 -22 -272 l0
-23 -366 0 c-402 0 -436 -4 -488 -55 -72 -70 -67 127 -64 -2315 3 -2125 4
-2196 22 -2230 23 -43 42 -62 87 -86 33 -18 118 -19 2434 -22 2198 -2 2404 -1
2443 14 48 18 83 49 109 97 17 30 18 156 21 2227 2 2042 1 2198 -14 2240 -22
58 -73 105 -129 119 -28 7 -174 11 -409 11 -342 0 -366 1 -366 18 -3 247 -11
288 -64 336 -49 43 -93 54 -232 55 -157 2 -201 -8 -254 -55 -53 -48 -64 -87
-65 -229 l-1 -120 -1022 -3 c-562 -1 -1022 1 -1023 5 0 5 -2 62 -3 128 -4 130
-10 154 -51 203 -50 60 -74 67 -245 69 -133 2 -161 0 -196 -16z m286 -493 l0
-308 -99 0 c-70 0 -100 4 -103 13 -3 10 -2 541 1 587 1 13 19 15 101 15 l100
0 0 -307z m2661 297 c3 -35 3 -564 0 -582 -3 -22 -7 -23 -102 -23 l-99 0 0
308 0 308 100 -1 c60 0 100 -4 101 -10z m-3071 -410 c4 -252 5 -259 35 -305
19 -27 48 -53 78 -69 44 -22 59 -24 190 -25 158 0 198 9 246 54 52 51 63 83
66 204 2 61 4 120 4 131 1 20 6 20 1015 20 558 0 1018 -4 1022 -8 5 -4 9 -63
10 -130 1 -136 11 -167 68 -219 43 -39 92 -51 226 -53 134 -1 181 7 232 41 64
41 81 89 85 234 2 68 6 127 9 130 7 7 704 7 705 0 1 -3 2 -186 3 -407 1 -264
-2 -404 -9 -406 -9 -2 -4663 0 -4690 2 -7 1 -10 140 -9 404 1 221 2 404 3 407
2 10 711 6 711 -5z m3988 -1020 c12 -11 8 -3264 -3 -3268 -9 -3 -4650 -1
-4685 2 -13 1 -15 189 -15 1632 0 1532 1 1632 17 1638 24 8 4678 4 4686 -4z"/>
<path d="M672 2953 c-18 -9 -38 -25 -45 -37 -9 -16 -12 -296 -12 -1127 0
-1093 0 -1107 20 -1129 11 -13 34 -28 50 -35 23 -9 465 -12 1891 -11 1847 1
1862 1 1884 21 13 11 28 34 35 50 17 43 14 2187 -3 2228 -25 60 92 57 -1934
57 -1689 0 -1856 -2 -1886 -17z m863 -443 l0 -255 -357 -1 -358 -2 0 257 0
256 358 0 357 0 0 -255z m922 -2 l0 -256 -358 0 -359 0 0 257 0 256 359 0 358
0 0 -257z m918 2 l0 -255 -356 -2 -356 -2 0 252 c0 139 3 254 7 257 5 3 165 5
357 5 l348 0 0 -255z m923 -2 l2 -257 -357 2 -358 2 0 255 0 255 355 0 355 0
3 -257z m-2766 -470 c2 -7 4 -123 4 -258 l-1 -245 -355 0 -355 0 -3 258 -2
257 354 0 c274 0 355 -3 358 -12z m925 -243 c0 -176 -3 -255 -11 -258 -6 -2
-166 -3 -356 -2 l-345 1 -3 257 -2 257 359 0 358 -1 0 -254z m923 -2 l0 -258
-355 0 c-307 0 -356 2 -359 15 -3 8 -4 124 -4 258 l1 242 359 0 358 0 0 -257z
m920 0 l0 -258 -353 0 c-193 0 -354 3 -357 7 -4 5 -5 475 -1 501 0 4 161 7
356 7 l355 0 0 -257z m-2765 -715 l0 -253 -357 -3 -358 -2 0 255 0 255 358 0
358 0 -1 -252z m922 -3 l0 -255 -358 0 -359 0 0 255 0 255 359 0 358 0 0 -255z
m923 0 l0 -255 -359 0 -359 0 1 255 0 255 359 0 358 0 0 -255z m920 0 l0 -255
-357 2 -358 3 0 253 -1 252 358 0 358 0 0 -255z"/>
</g>
</svg>
