<?xml version="1.0" standalone="no"?>
<!DOCTYPE svg PUBLIC "-//W3C//DTD SVG 20010904//EN"
 "http://www.w3.org/TR/2001/REC-SVG-20010904/DTD/svg10.dtd">
<svg version="1.0" xmlns="http://www.w3.org/2000/svg"
 width="370.000000pt" height="370.000000pt" viewBox="0 0 370.000000 370.000000"
 preserveAspectRatio="xMidYMid meet">
<metadata>
Created by potrace 1.11, written by Peter Selinger 2001-2013
</metadata>
<g transform="translate(0.000000,370.000000) scale(0.100000,-0.100000)"
fill="#000000" stroke="none">
<path d="M41 3659 c-33 -33 -40 -72 -20 -112 6 -12 387 -399 847 -859 l837
-838 -842 -842 c-462 -464 -844 -854 -848 -866 -25 -85 60 -160 138 -121 12 6
399 387 860 848 l837 836 838 -836 c460 -461 847 -842 859 -848 83 -42 174 49
132 132 -6 12 -387 399 -848 860 l-836 837 836 838 c461 460 842 847 848 859
42 83 -49 174 -132 132 -12 -6 -399 -387 -859 -848 l-838 -836 -837 836 c-461
461 -848 842 -860 848 -40 20 -79 13 -112 -20z"/>
</g>
</svg>
