<?xml version="1.0" standalone="no"?>
<!DOCTYPE svg PUBLIC "-//W3C//DTD SVG 20010904//EN"
 "http://www.w3.org/TR/2001/REC-SVG-20010904/DTD/svg10.dtd">
<svg version="1.0" xmlns="http://www.w3.org/2000/svg"
 width="512.000000pt" height="390.000000pt" viewBox="0 0 512.000000 390.000000"
 preserveAspectRatio="xMidYMid meet">
<metadata>
Created by potrace 1.11, written by Peter Selinger 2001-2013
</metadata>
<g transform="translate(0.000000,390.000000) scale(0.100000,-0.100000)"
fill="#000000" stroke="none">
<path d="M261 3888 c-99 -15 -192 -85 -235 -177 l-21 -46 -2 -1705 -3 -1705
25 -59 c30 -73 91 -137 159 -168 50 -22 58 -23 444 -25 215 -1 393 1 393 5 1
4 2 50 3 102 l1 95 102 1 102 2 3 -102 3 -101 1327 -1 1327 -2 3 102 3 101
101 1 100 2 0 -102 -1 -101 395 0 c382 0 396 1 441 21 55 26 124 86 147 128
43 79 42 44 41 1596 0 1449 -1 1486 -20 1536 -34 90 -125 168 -219 189 -19 5
-525 9 -1125 9 l-1090 1 -2 60 c-2 86 -11 131 -34 176 -33 65 -84 114 -151
144 l-63 29 -1051 0 c-578 1 -1074 -2 -1103 -6z m2140 -213 c50 -26 56 -53 55
-233 l-1 -162 1183 0 c1276 0 1234 2 1263 -52 11 -18 13 -308 14 -1472 0 -947
-3 -1459 -10 -1479 -5 -17 -22 -39 -36 -49 -24 -18 -45 -19 -270 -19 -134 0
-256 0 -271 0 l-28 1 0 100 0 100 -307 0 -308 0 0 -101 0 -101 -1085 0 c-597
1 -1104 1 -1126 1 l-41 1 1 97 1 98 -308 3 -307 2 0 -100 0 -100 -27 -1 c-16
0 -138 0 -271 0 -262 0 -275 2 -304 53 -10 18 -12 376 -13 1683 0 1813 -4
1698 55 1731 21 11 209 13 1068 13 911 1 1047 -1 1073 -14z"/>
<path d="M1270 2753 c-155 -39 -230 -145 -231 -323 0 -41 2 -84 4 -95 3 -11 8
-42 11 -69 4 -27 9 -53 12 -57 2 -4 -3 -20 -12 -36 -25 -42 -11 -117 27 -155
16 -16 29 -34 29 -38 0 -24 35 -109 59 -145 27 -40 31 -74 22 -197 -2 -27 -58
-85 -104 -106 -70 -33 -109 -50 -167 -72 -183 -70 -282 -167 -297 -288 l-5
-47 766 3 767 2 -6 38 c-9 60 -53 138 -100 179 -37 33 -132 86 -200 113 -166
65 -237 106 -258 147 -9 17 -15 64 -16 114 -2 69 1 88 14 99 20 17 65 115 65
141 0 11 11 29 25 41 42 36 62 125 39 170 -10 20 -13 40 -8 61 13 55 14 61 21
107 15 109 5 201 -30 262 -21 39 -88 88 -119 88 -8 0 -25 11 -38 25 -43 46
-170 64 -270 38z"/>
<path d="M2663 2254 l0 -103 911 0 c501 0 916 3 922 7 7 4 10 44 10 102 l-1
95 -922 1 -921 1 1 -103z"/>
<path d="M2670 1840 c-4 -3 -8 -49 -8 -103 l0 -97 922 2 921 3 1 98 c0 61 -4
98 -10 98 -32 5 -1819 3 -1826 -1z"/>
<path d="M2684 1332 c-19 -3 -21 -10 -22 -102 l-1 -100 922 0 923 0 0 100 c0
55 -2 100 -5 101 -15 3 -1799 4 -1817 1z"/>
</g>
</svg>
