<?xml version="1.0" standalone="no"?>
<!DOCTYPE svg PUBLIC "-//W3C//DTD SVG 20010904//EN"
 "http://www.w3.org/TR/2001/REC-SVG-20010904/DTD/svg10.dtd">
<svg version="1.0" xmlns="http://www.w3.org/2000/svg"
 width="512.000000pt" height="512.000000pt" viewBox="0 0 512.000000 512.000000"
 preserveAspectRatio="xMidYMid meet">
<metadata>
Created by potrace 1.11, written by Peter Selinger 2001-2013
</metadata>
<g transform="translate(0.000000,512.000000) scale(0.100000,-0.100000)"
fill="#000000" stroke="none">
<path d="M805 5108 c-357 -66 -638 -306 -757 -648 -48 -141 -47 -98 -45 -1930
1 -943 5 -1724 9 -1735 3 -11 13 -48 22 -83 80 -305 321 -561 621 -660 147
-49 62 -47 1890 -47 946 0 1738 3 1760 6 354 55 667 323 770 659 45 148 44
118 42 1930 l-3 1715 -22 80 c-73 261 -246 483 -472 607 -69 38 -207 87 -290
103 -64 12 -336 14 -1775 13 -1000 0 -1721 -4 -1750 -10z m3335 -1270 l0 -296
-227 -4 c-212 -3 -231 -5 -273 -25 -79 -39 -82 -54 -88 -320 l-4 -233 276 0
c153 0 275 -3 273 -7 -3 -5 -8 -39 -11 -78 -8 -79 -15 -145 -21 -190 -2 -16
-7 -57 -10 -90 -3 -33 -7 -73 -10 -90 -2 -16 -7 -55 -10 -86 l-7 -57 -221 0
c-122 0 -230 0 -239 -1 -17 -1 -18 -50 -18 -886 l0 -885 -400 0 -400 0 0 888
0 887 -155 -1 -155 -1 0 298 0 299 155 0 155 0 1 233 c1 263 3 302 24 408 42
212 154 365 329 448 152 73 262 86 701 86 l335 0 0 -297z"/>
</g>
</svg>
