<?xml version="1.0" standalone="no"?>
<!DOCTYPE svg PUBLIC "-//W3C//DTD SVG 20010904//EN"
 "http://www.w3.org/TR/2001/REC-SVG-20010904/DTD/svg10.dtd">
<svg version="1.0" xmlns="http://www.w3.org/2000/svg"
 width="512.000000pt" height="512.000000pt" viewBox="0 0 512.000000 512.000000"
 preserveAspectRatio="xMidYMid meet">
<metadata>
Created by potrace 1.11, written by Peter Selinger 2001-2013
</metadata>
<g transform="translate(0.000000,512.000000) scale(0.100000,-0.100000)"
fill="#000000" stroke="none">
<path d="M845 5105 c-366 -69 -668 -329 -789 -677 -58 -168 -56 -96 -53 -1898
1 -910 6 -1666 10 -1680 3 -14 9 -38 13 -55 32 -161 144 -361 276 -493 118
-119 314 -235 443 -263 176 -39 130 -38 1820 -38 1754 0 1693 -1 1850 51 343
114 606 407 682 761 17 77 18 191 18 1757 l0 1675 -24 89 c-94 358 -344 626
-684 736 -157 51 -94 49 -1852 48 -1313 0 -1654 -3 -1710 -13z m3425 -210
c350 -83 606 -368 638 -710 3 -33 6 -778 5 -1655 0 -1471 -1 -1601 -17 -1670
-20 -87 -20 -88 -31 -115 -101 -257 -299 -440 -550 -509 -100 -27 -167 -31
-505 -31 l-325 0 -2 973 -1 972 249 0 c192 0 249 3 250 13 0 6 2 21 4 32 2 11
20 115 39 230 19 116 37 226 41 245 3 19 7 46 10 60 3 14 7 41 10 60 3 19 10
59 15 89 18 101 52 91 -304 91 l-314 0 0 113 c0 61 2 123 5 136 11 47 54 54
333 57 140 2 260 3 265 3 7 1 10 119 10 346 0 190 -1 345 -1 345 -1 0 -59 16
-130 35 -70 19 -166 42 -213 50 -47 8 -97 17 -111 20 -42 9 -191 19 -275 18
-286 -1 -500 -93 -637 -273 -45 -59 -105 -181 -113 -230 0 -3 -6 -21 -12 -40
-28 -85 -42 -236 -43 -462 l0 -118 -154 0 -154 0 0 -410 0 -410 154 0 154 0 0
-973 0 -972 -802 1 c-442 0 -827 4 -857 8 -70 10 -209 57 -269 92 -238 136
-393 367 -420 624 -3 30 -6 777 -6 1660 l1 1605 21 87 c26 106 86 239 130 286
6 7 12 17 12 20 0 9 93 106 134 140 114 96 274 163 431 180 33 4 780 7 1660 6
1499 -1 1605 -2 1675 -19z m-670 -1020 c19 -4 90 -18 157 -31 68 -13 125 -24
128 -24 3 0 5 -76 5 -169 l0 -169 -138 -1 c-225 0 -320 -23 -393 -93 -34 -32
-70 -87 -69 -105 0 -5 -3 -23 -6 -42 -11 -57 -10 -462 1 -470 6 -4 139 -7 298
-7 l287 1 -5 -40 c-2 -22 -7 -51 -10 -65 -12 -59 -15 -77 -20 -120 -6 -43 -8
-58 -24 -145 l-7 -40 -262 0 c-144 0 -262 -2 -263 -5 0 -3 -2 -486 -2 -1075
l-2 -1070 -252 0 c-218 0 -253 2 -254 15 -1 8 -2 492 -3 1075 l-1 1060 -152 0
c-84 0 -153 2 -154 5 -1 7 -1 361 0 385 1 20 7 21 147 20 92 -1 148 3 152 9 3
6 7 123 8 261 2 258 7 357 23 413 5 17 8 32 6 32 -7 0 47 137 70 176 70 119
205 200 375 228 36 5 319 -2 360 -9z"/>
</g>
</svg>
