<?xml version="1.0" standalone="no"?>
<!DOCTYPE svg PUBLIC "-//W3C//DTD SVG 20010904//EN"
 "http://www.w3.org/TR/2001/REC-SVG-20010904/DTD/svg10.dtd">
<svg version="1.0" xmlns="http://www.w3.org/2000/svg"
 width="512.000000pt" height="512.000000pt" viewBox="0 0 512.000000 512.000000"
 preserveAspectRatio="xMidYMid meet">
<metadata>
Created by potrace 1.11, written by Peter Selinger 2001-2013
</metadata>
<g transform="translate(0.000000,512.000000) scale(0.100000,-0.100000)"
fill="#000000" stroke="none">
<path d="M2321 5110 c-497 -48 -990 -251 -1376 -565 -114 -92 -294 -274 -384
-387 -229 -287 -417 -675 -495 -1023 -49 -218 -60 -325 -60 -575 0 -250 11
-357 60 -575 79 -355 272 -749 509 -1040 92 -114 274 -294 387 -384 287 -229
675 -417 1023 -495 218 -49 325 -60 575 -60 250 0 357 11 575 60 261 58 603
204 828 353 389 259 688 599 893 1016 125 255 196 484 241 775 24 161 24 539
0 700 -45 291 -116 520 -241 775 -134 272 -283 480 -498 692 -211 209 -404
346 -673 478 -252 124 -486 197 -765 240 -126 19 -468 27 -599 15z m139 -766
l0 -557 -112 7 c-354 22 -708 73 -708 102 0 25 89 243 145 356 161 320 371
547 578 624 108 40 97 102 97 -532z m294 532 c260 -94 514 -415 687 -866 l48
-125 -52 -12 c-127 -30 -410 -63 -664 -79 l-113 -7 0 557 c0 480 2 556 15 556
8 0 43 -11 79 -24z m-902 -143 c-44 -54 -103 -133 -131 -177 -71 -110 -183
-337 -240 -491 -45 -120 -51 -130 -73 -127 -50 8 -349 113 -460 162 l-118 52
26 32 c64 78 264 245 409 343 80 54 242 143 335 184 72 31 306 117 323 118 5
1 -27 -43 -71 -96z m1460 58 c326 -113 588 -268 840 -497 47 -44 98 -93 112
-110 l26 -32 -138 -59 c-206 -90 -449 -171 -463 -155 -3 4 -23 54 -44 112 -48
135 -178 402 -245 505 -29 44 -88 124 -132 178 -44 53 -77 97 -75 97 3 0 56
-18 119 -39z m1215 -936 c144 -214 269 -508 328 -771 27 -120 55 -317 55 -386
l0 -38 -508 0 -508 0 -13 193 c-18 284 -60 575 -112 779 -10 42 -19 83 -19 90
0 9 20 19 53 27 146 37 461 159 578 225 l42 24 32 -41 c17 -23 50 -69 72 -102z
m-3774 111 c94 -54 437 -185 565 -216 34 -8 52 -17 52 -27 0 -8 -9 -49 -19
-91 -52 -204 -94 -495 -112 -779 l-13 -193 -508 0 -508 0 0 38 c0 21 6 90 14
153 37 296 133 592 276 850 81 145 181 289 202 289 5 0 28 -11 51 -24z m905
-296 c143 -33 560 -80 715 -80 l87 0 0 -465 0 -465 -512 0 -511 0 6 160 c10
242 52 541 108 773 24 97 23 96 107 77z m1911 -77 c56 -232 98 -531 108 -773
l6 -160 -511 0 -512 0 0 465 0 465 88 0 c162 0 623 51 717 79 76 23 81 20 104
-76z m-2330 -1325 c18 -285 60 -576 112 -780 10 -42 19 -83 19 -90 0 -9 -20
-19 -52 -27 -147 -37 -462 -159 -579 -225 l-42 -24 -32 41 c-183 243 -331 565
-400 873 -27 120 -55 317 -55 386 l0 38 508 0 508 0 13 -192z m1221 -273 l0
-465 -87 0 c-165 0 -615 -50 -723 -80 -73 -21 -76 -19 -99 78 -56 231 -98 530
-108 772 l-6 160 511 0 512 0 0 -465z m1217 305 c-10 -242 -52 -541 -108 -772
-24 -98 -23 -97 -107 -78 -143 33 -560 80 -714 80 l-88 0 0 465 0 465 512 0
511 0 -6 -160z m1233 122 c0 -21 -6 -90 -14 -153 -46 -368 -182 -729 -388
-1031 -81 -118 -80 -118 -136 -86 -106 59 -442 187 -569 218 -35 8 -53 17 -53
27 0 8 9 49 19 91 52 204 94 495 112 780 l13 192 508 0 508 0 0 -38z m-2450
-1647 c0 -479 -2 -555 -15 -555 -8 0 -43 11 -79 24 -260 94 -514 415 -687 866
l-48 125 52 12 c83 20 311 51 452 63 72 5 148 12 170 13 22 2 66 4 98 5 l57 2
0 -555z m540 534 c225 -19 480 -65 480 -85 0 -25 -89 -243 -145 -356 -130
-258 -292 -457 -463 -567 -52 -33 -168 -81 -197 -81 -13 0 -15 76 -15 556 l0
557 113 -7 c61 -4 164 -12 227 -17z m-1519 -254 c57 -154 169 -381 240 -491
28 -44 87 -123 131 -176 44 -54 77 -98 75 -98 -3 0 -56 18 -119 39 -326 113
-588 268 -840 497 -47 44 -98 93 -112 110 l-26 32 138 60 c155 68 431 163 456
158 4 -1 30 -60 57 -131z m2464 54 c61 -20 163 -61 227 -89 l118 -52 -26 -32
c-14 -17 -65 -66 -112 -110 -252 -229 -514 -384 -840 -497 -63 -21 -116 -39
-119 -39 -2 0 31 44 75 98 44 53 103 133 132 177 66 102 188 351 236 480 20
55 40 110 45 122 l8 22 73 -21 c40 -11 123 -38 183 -59z"/>
</g>
</svg>
