<?xml version="1.0" standalone="no"?>
<!DOCTYPE svg PUBLIC "-//W3C//DTD SVG 20010904//EN"
 "http://www.w3.org/TR/2001/REC-SVG-20010904/DTD/svg10.dtd">
<svg version="1.0" xmlns="http://www.w3.org/2000/svg"
 width="512.000000pt" height="472.000000pt" viewBox="0 0 512.000000 472.000000"
 preserveAspectRatio="xMidYMid meet">
<metadata>
Created by potrace 1.11, written by Peter Selinger 2001-2013
</metadata>
<g transform="translate(0.000000,472.000000) scale(0.100000,-0.100000)"
fill="#000000" stroke="none">
<path d="M1575 4691 c-161 -46 -312 -173 -383 -322 -48 -100 -62 -162 -62
-272 0 -162 59 -305 175 -423 l71 -71 -42 -23 c-24 -12 -72 -47 -109 -77 l-67
-55 -71 18 c-90 22 -239 22 -332 0 -234 -56 -425 -230 -513 -468 -25 -68 -27
-85 -27 -228 0 -143 2 -161 27 -228 48 -134 130 -248 243 -341 27 -23 36 -35
26 -38 -7 -3 -53 -32 -101 -64 -187 -125 -320 -312 -382 -540 -22 -80 -23
-101 -23 -405 0 -368 -6 -343 95 -394 228 -115 691 -167 1121 -125 130 13 253
35 391 70 l27 7 3 -245 3 -245 25 -28 c56 -61 247 -126 470 -161 166 -26 674
-26 840 0 223 35 414 100 470 161 l25 28 3 245 3 245 27 -7 c138 -35 261 -57
391 -70 430 -42 893 10 1121 125 101 51 95 26 95 394 0 304 -1 325 -23 405
-62 228 -195 415 -382 540 -48 32 -94 61 -101 64 -10 3 -1 15 26 38 113 93
195 207 243 341 25 67 27 85 27 228 0 143 -2 160 -27 228 -88 238 -279 412
-513 468 -98 23 -259 21 -350 -5 l-70 -20 -30 28 c-42 39 -152 119 -175 126
-16 5 -8 16 49 73 243 244 244 619 1 862 -125 126 -256 180 -432 180 -108 0
-182 -17 -271 -61 -157 -79 -277 -226 -323 -396 -20 -75 -20 -231 0 -305 27
-98 80 -191 156 -270 38 -40 67 -74 62 -76 -20 -6 -133 -86 -175 -123 -103
-90 -199 -246 -233 -377 -10 -40 -21 -72 -24 -72 -3 0 -13 30 -23 67 -55 209
-197 384 -414 508 -1 0 28 32 65 71 75 78 132 176 156 270 20 78 21 232 1 307
-55 211 -231 387 -442 442 -78 20 -241 18 -318 -4z m333 -221 c90 -41 160
-112 204 -205 30 -64 33 -78 33 -165 0 -86 -3 -101 -32 -162 -126 -266 -455
-328 -659 -124 -158 159 -162 402 -8 566 47 50 136 103 200 120 73 18 186 5
262 -30z m1617 2 c125 -59 211 -170 236 -305 49 -267 -201 -517 -468 -468
-280 52 -426 356 -289 602 30 52 105 127 160 158 106 60 249 65 361 13z
m-1625 -1007 c253 -67 433 -289 453 -558 l4 -57 -105 -51 c-91 -44 -116 -62
-191 -137 -130 -131 -189 -249 -210 -423 -31 -246 71 -491 270 -649 l47 -37
-42 -20 c-61 -30 -199 -137 -244 -189 l-39 -46 -6 104 c-7 111 -19 167 -62
279 -61 160 -225 351 -376 440 -41 23 -76 44 -78 46 -3 2 6 11 20 20 53 37
132 120 174 182 84 128 120 247 120 401 0 132 -14 188 -77 319 -42 87 -62 116
-127 181 l-77 77 45 31 c65 43 123 70 184 87 69 18 247 19 317 0z m1613 0 c65
-17 143 -54 203 -97 l40 -29 -72 -74 c-59 -60 -82 -93 -123 -177 -62 -130 -76
-187 -76 -318 0 -154 36 -273 120 -401 42 -62 121 -145 174 -182 14 -9 23 -18
20 -20 -2 -2 -37 -23 -78 -46 -151 -89 -315 -280 -376 -440 -43 -112 -55 -168
-62 -279 l-6 -104 -39 46 c-45 52 -183 159 -244 189 l-42 20 47 37 c199 158
301 403 270 649 -21 174 -80 292 -209 421 -86 86 -159 133 -263 170 l-52 19 3
58 c4 91 21 151 65 243 73 151 217 269 382 315 69 18 247 19 318 0z m-2470
-200 c183 -47 325 -187 372 -366 19 -69 19 -189 0 -258 -48 -182 -204 -333
-383 -370 -274 -57 -543 112 -607 380 -75 319 164 625 490 628 39 1 97 -6 128
-14z m3281 -1 c182 -47 328 -194 371 -375 99 -422 -333 -765 -725 -576 -82 40
-186 142 -224 219 -101 206 -66 435 89 594 127 130 315 183 489 138z m-1684
-604 c190 -30 360 -182 412 -369 65 -236 -47 -483 -270 -594 l-85 -42 -137 0
-137 0 -85 42 c-381 189 -383 727 -3 914 109 53 191 66 305 49z m-1565 -625
c39 -8 113 -36 164 -61 78 -39 110 -62 182 -133 100 -99 156 -192 191 -316 21
-74 22 -100 23 -335 l0 -255 -55 -22 c-135 -53 -379 -85 -660 -85 -281 0 -511
31 -665 89 l-50 19 1 239 c0 283 11 350 81 486 147 288 469 441 788 374z
m3278 -1 c207 -47 383 -184 480 -373 70 -136 81 -203 81 -486 l1 -239 -50 -19
c-154 -58 -384 -89 -665 -89 -281 0 -525 32 -660 85 l-55 22 0 255 c1 235 2
261 23 335 35 124 91 217 191 316 141 140 299 206 494 208 48 1 120 -6 160
-15z m-1598 -625 c246 -76 425 -256 495 -499 19 -65 23 -108 27 -331 l5 -256
-39 -16 c-319 -127 -1047 -127 -1366 0 l-39 16 5 256 c4 223 8 266 27 331 78
270 300 470 578 520 75 14 228 4 307 -21z"/>
</g>
</svg>
