<?xml version="1.0" standalone="no"?>
<!DOCTYPE svg PUBLIC "-//W3C//DTD SVG 20010904//EN"
 "http://www.w3.org/TR/2001/REC-SVG-20010904/DTD/svg10.dtd">
<svg version="1.0" xmlns="http://www.w3.org/2000/svg"
 width="512.000000pt" height="452.000000pt" viewBox="0 0 512.000000 452.000000"
 preserveAspectRatio="xMidYMid meet">
<metadata>
Created by potrace 1.11, written by Peter Selinger 2001-2013
</metadata>
<g transform="translate(0.000000,452.000000) scale(0.100000,-0.100000)"
fill="#000000" stroke="none">
<path d="M2397 4499 c-20 -5 -56 -18 -79 -30 -27 -14 -273 -250 -677 -650
l-636 -628 -340 -1 c-187 0 -366 -4 -399 -10 -112 -18 -190 -76 -237 -175
l-29 -60 0 -685 0 -685 29 -60 c47 -99 125 -157 237 -175 33 -6 213 -10 402
-10 l343 0 632 -628 c713 -709 686 -687 827 -687 97 0 158 29 213 101 78 103
72 -89 75 2139 2 1746 0 1996 -13 2041 -46 159 -186 241 -348 203z m128 -213
c13 -13 26 -39 30 -57 3 -19 4 -909 3 -1979 -3 -1922 -3 -1945 -23 -1985 -26
-52 -58 -64 -111 -40 -26 13 -255 234 -711 689 -579 579 -673 676 -682 711
-15 56 -15 1210 0 1269 10 39 76 108 677 709 668 667 711 706 775 707 10 0 29
-11 42 -24z m-1692 -1343 c-10 -36 -10 -1330 0 -1365 l7 -28 -286 0 -286 0
-29 29 -29 29 0 652 0 652 29 29 29 29 286 0 286 0 -7 -27z"/>
<path d="M3905 4111 c-62 -27 -80 -108 -35 -156 13 -14 60 -46 104 -71 412
-231 741 -643 871 -1091 58 -200 70 -291 70 -533 0 -242 -12 -333 -70 -533
-130 -448 -459 -860 -871 -1091 -103 -59 -129 -85 -129 -137 0 -56 40 -94 98
-94 33 0 64 13 144 59 354 205 630 497 814 861 97 191 156 368 200 600 19 97
19 573 0 670 -44 232 -103 409 -200 600 -184 363 -461 656 -810 859 -101 58
-150 73 -186 57z"/>
<path d="M3554 3572 c-36 -5 -76 -56 -76 -95 0 -51 17 -70 135 -147 288 -187
482 -467 557 -805 30 -131 33 -367 7 -497 -69 -346 -265 -641 -555 -832 -126
-84 -146 -107 -139 -161 7 -52 44 -85 96 -85 29 0 59 14 127 56 344 216 581
557 669 964 24 113 31 381 11 505 -68 444 -332 836 -713 1061 -48 29 -89 41
-119 36z"/>
<path d="M3093 2918 c-30 -15 -56 -72 -48 -107 8 -39 40 -66 107 -91 196 -73
328 -258 328 -460 0 -203 -133 -389 -331 -461 -91 -33 -128 -93 -95 -154 34
-63 88 -70 196 -26 266 109 432 355 432 641 0 286 -166 532 -432 641 -75 30
-120 35 -157 17z"/>
</g>
</svg>
