<?xml version="1.0" standalone="no"?>
<!DOCTYPE svg PUBLIC "-//W3C//DTD SVG 20010904//EN"
 "http://www.w3.org/TR/2001/REC-SVG-20010904/DTD/svg10.dtd">
<svg version="1.0" xmlns="http://www.w3.org/2000/svg"
 width="369.000000pt" height="452.000000pt" viewBox="0 0 369.000000 452.000000"
 preserveAspectRatio="xMidYMid meet">
<metadata>
Created by potrace 1.11, written by Peter Selinger 2001-2013
</metadata>
<g transform="translate(0.000000,452.000000) scale(0.100000,-0.100000)"
fill="#000000" stroke="none">
<path d="M2373 4491 c-28 -10 -71 -32 -95 -49 -24 -16 -319 -305 -657 -641
-337 -336 -616 -611 -620 -612 -3 -1 -172 -2 -376 -3 -391 -2 -411 -4 -485
-51 -47 -31 -84 -71 -112 -125 l-23 -45 0 -705 0 -705 23 -45 c48 -91 127
-150 225 -168 23 -5 201 -8 396 -7 l354 0 616 -613 c359 -358 640 -630 673
-652 73 -48 132 -64 208 -57 134 12 221 108 257 284 9 43 9 3870 0 3937 -21
162 -121 264 -267 273 -47 2 -79 -2 -117 -16z m139 -192 c50 -27 48 62 48
-2011 0 -1063 -3 -1949 -6 -1968 -15 -89 -64 -125 -129 -94 -44 21 -1356 1319
-1383 1369 -15 27 -17 91 -18 649 -1 360 3 635 8 656 8 32 116 143 666 692
362 360 673 666 692 680 30 23 46 29 93 37 5 0 17 -4 29 -10z m-1677 -1331 c3
-2 0 -20 -5 -39 -10 -33 -9 -1322 1 -1363 4 -19 27 -19 -484 -16 -73 0 -81 2
-108 29 l-29 29 0 644 c0 622 1 644 20 675 11 19 31 35 47 39 15 3 31 6 35 7
17 4 520 -1 523 -5z"/>
<path d="M3093 2918 c-30 -15 -56 -72 -48 -107 8 -39 39 -65 105 -91 203 -79
317 -234 326 -443 10 -212 -111 -392 -318 -473 -80 -32 -122 -75 -114 -118 9
-51 18 -66 46 -81 42 -22 79 -19 160 14 300 122 471 422 427 746 -32 234 -199
443 -427 536 -75 30 -120 35 -157 17z"/>
</g>
</svg>
