<?xml version="1.0" standalone="no"?>
<!DOCTYPE svg PUBLIC "-//W3C//DTD SVG 20010904//EN"
 "http://www.w3.org/TR/2001/REC-SVG-20010904/DTD/svg10.dtd">
<svg version="1.0" xmlns="http://www.w3.org/2000/svg"
 width="512.000000pt" height="328.000000pt" viewBox="0 0 512.000000 328.000000"
 preserveAspectRatio="xMidYMid meet">
<metadata>
Created by potrace 1.11, written by Peter Selinger 2001-2013
</metadata>
<g transform="translate(0.000000,328.000000) scale(0.100000,-0.100000)"
fill="#000000" stroke="none">
<path d="M0 3176 l0 -102 2560 0 2560 0 0 102 0 103 -2560 0 -2560 0 0 -103z"/>
<path d="M17 1742 c-15 -3 -17 -18 -17 -103 0 -96 1 -99 23 -100 29 -1 5068
-1 5085 0 9 1 12 28 12 101 0 73 -3 100 -12 101 -47 2 -5078 3 -5091 1z"/>
<path d="M5 201 c-3 -2 -5 -48 -5 -102 l0 -98 2560 0 2560 0 0 103 0 103
-2555 -1 c-1406 0 -2558 -2 -2560 -5z"/>
</g>
</svg>
