<?xml version="1.0" standalone="no"?>
<!DOCTYPE svg PUBLIC "-//W3C//DTD SVG 20010904//EN"
 "http://www.w3.org/TR/2001/REC-SVG-20010904/DTD/svg10.dtd">
<svg version="1.0" xmlns="http://www.w3.org/2000/svg"
 width="512.000000pt" height="431.000000pt" viewBox="0 0 512.000000 431.000000"
 preserveAspectRatio="xMidYMid meet">
<metadata>
Created by potrace 1.11, written by Peter Selinger 2001-2013
</metadata>
<g transform="translate(0.000000,431.000000) scale(0.100000,-0.100000)"
fill="#000000" stroke="none">
<path d="M70 4301 c-14 -4 -35 -22 -47 -40 l-23 -34 0 -2066 c0 -1620 3 -2071
13 -2090 6 -13 24 -33 39 -44 26 -19 47 -20 1587 -20 1431 0 1562 1 1585 17
50 32 51 36 53 426 1 201 2 367 2 371 1 3 394 5 874 5 823 -1 874 0 909 17 24
12 40 29 47 49 14 40 15 3315 1 3352 -5 14 -21 33 -37 43 -26 17 -135 18
-2503 19 -1361 0 -2486 -2 -2500 -5z m935 -200 c20 -1 20 -8 20 -306 l0 -305
-410 2 -410 3 0 300 c0 282 1 300 18 305 14 4 692 5 782 1z m1033 0 c9 -1 12
-69 12 -306 l0 -305 -410 0 -410 0 0 304 c0 277 2 305 17 308 14 2 750 2 791
-1z m1010 0 l22 -1 0 -305 0 -305 -409 0 -409 0 0 304 c0 271 1 305 16 308 13
3 711 2 780 -1z m1027 0 c20 -1 20 -8 20 -306 l0 -305 -407 0 c-382 0 -408 1
-409 18 0 9 -1 145 -2 302 l0 284 22 6 c17 4 676 5 776 1z m836 -1 c1 -3 2
-141 3 -307 l1 -303 -307 0 -308 0 0 304 0 305 23 3 c37 5 587 3 588 -2z
m-3891 -827 c3 -7 5 -144 5 -305 l-1 -293 -409 0 -410 0 0 302 c0 295 0 302
20 305 11 2 193 3 405 3 295 0 386 -3 390 -12z m1018 8 c9 -1 12 -69 12 -306
l0 -305 -410 0 -410 0 0 303 c0 167 2 306 4 308 4 3 767 4 804 0z m1032 -303
l0 -308 -409 0 -410 0 1 303 c0 166 1 304 3 307 2 3 186 5 409 5 l406 0 0
-307z m1000 303 l25 -1 0 -305 0 -305 -409 2 -409 3 0 285 c1 157 2 294 2 305
1 20 7 20 384 19 210 -1 393 -2 407 -3z m835 0 c7 -1 10 -108 10 -306 l0 -305
-307 0 -308 0 0 304 c0 194 4 306 10 308 9 3 569 2 595 -1z m-3884 -826 c1 -5
2 -144 3 -308 l1 -297 -410 2 -410 3 -1 295 c0 162 1 300 3 305 2 6 147 10
408 10 263 0 405 -4 406 -10z m1022 6 c4 -1 7 -138 7 -306 l0 -305 -410 0
-410 0 0 303 c0 167 2 306 4 308 4 3 785 4 809 0z m1027 -303 l0 -308 -409 0
-410 0 1 303 c0 166 2 304 3 307 2 3 186 5 409 5 l406 0 0 -307z m1020 303 c3
-1 5 -138 5 -306 l0 -305 -407 0 -408 0 -1 23 c-5 120 -3 574 3 582 4 6 149 9
405 9 219 -1 400 -2 403 -3z m820 0 c3 -1 5 -137 5 -303 l0 -303 -307 -3 -308
-2 0 303 c0 167 2 306 4 308 4 3 590 4 606 0z m-3890 -820 c4 -1 5 -561 1
-597 -1 -12 -810 -17 -812 -5 -3 15 -5 587 -2 596 2 7 142 10 406 9 221 -1
404 -2 407 -3z m1023 0 c4 0 7 -136 7 -300 0 -277 -1 -300 -17 -305 -10 -2
-195 -4 -410 -4 l-393 1 0 306 0 306 403 -1 c221 -1 405 -2 410 -3z m1027
-302 l0 -306 -409 0 -408 0 -1 300 c0 166 1 304 3 307 2 3 186 5 409 5 l406 0
0 -306z m1021 296 c1 -5 2 -144 3 -307 l1 -297 -398 0 c-219 0 -404 2 -410 5
-9 3 -12 82 -10 297 1 160 2 297 2 302 1 14 811 14 812 0z m821 -5 c2 -8 4
-145 3 -305 l0 -290 -307 -2 -308 -2 0 303 c0 166 2 305 4 307 3 2 140 4 305
4 259 0 300 -2 303 -15z m-3894 -817 c6 -9 8 -564 3 -595 0 -4 -183 -7 -406
-7 -302 1 -405 4 -406 12 -1 7 -2 143 -3 302 -1 222 1 291 11 295 26 11 795 3
801 -7z m1025 8 c4 -1 7 -138 7 -305 l-1 -305 -410 0 -409 0 0 303 c0 166 2
305 4 307 3 3 776 3 809 0z m1027 -303 l0 -307 -409 0 -409 0 0 304 c0 270 2
304 16 307 8 2 193 3 409 3 l393 0 0 -307z"/>
</g>
</svg>
