<?xml version="1.0" standalone="no"?>
<!DOCTYPE svg PUBLIC "-//W3C//DTD SVG 20010904//EN"
 "http://www.w3.org/TR/2001/REC-SVG-20010904/DTD/svg10.dtd">
<svg version="1.0" xmlns="http://www.w3.org/2000/svg"
 width="492.000000pt" height="492.000000pt" viewBox="0 0 492.000000 492.000000"
 preserveAspectRatio="xMidYMid meet">
<metadata>
Created by potrace 1.11, written by Peter Selinger 2001-2013
</metadata>
<g transform="translate(0.000000,492.000000) scale(0.100000,-0.100000)"
fill="#000000" stroke="none">
<path d="M2327 4914 c-1 -1 -38 -4 -82 -8 -44 -3 -93 -8 -110 -11 -37 -6 -78
-13 -129 -21 -179 -27 -448 -118 -645 -218 -156 -79 -337 -193 -433 -274 -12
-11 -45 -39 -73 -62 -283 -239 -535 -592 -675 -945 -36 -90 -97 -281 -105
-327 -3 -17 -8 -35 -10 -38 -3 -4 -7 -25 -10 -46 -4 -22 -8 -46 -10 -54 -21
-73 -39 -281 -39 -445 0 -556 163 -1044 498 -1490 259 -344 637 -633 1042
-796 427 -171 904 -218 1369 -134 269 49 582 169 820 315 67 41 235 157 245
169 3 3 28 24 55 45 160 126 405 411 521 606 159 266 280 578 318 826 4 22 11
66 16 99 32 193 32 507 1 710 -19 119 -22 141 -33 180 -5 22 -12 48 -14 59
-27 142 -131 408 -230 587 -45 82 -161 263 -195 304 -9 11 -43 52 -74 90 -162
196 -382 386 -610 525 -197 120 -482 239 -685 286 -71 16 -164 35 -196 39 -21
4 -50 8 -64 10 -88 14 -452 29 -463 19z m268 -208 c139 -7 184 -12 304 -37 53
-11 107 -22 120 -25 13 -3 77 -22 141 -44 674 -222 1204 -745 1428 -1405 39
-114 69 -220 78 -275 3 -14 9 -47 14 -75 5 -27 13 -77 16 -110 4 -33 8 -73 10
-90 4 -38 4 -329 -1 -375 -10 -109 -17 -150 -61 -370 -8 -38 -79 -248 -105
-310 -274 -647 -833 -1131 -1512 -1309 -120 -32 -260 -57 -372 -66 -79 -7
-337 -7 -375 -1 -14 2 -56 7 -95 11 -377 37 -800 214 -1129 473 -167 130 -379
369 -509 571 -53 82 -148 271 -186 372 -36 93 -99 304 -107 359 -3 19 -9 53
-14 75 -5 22 -12 72 -15 110 -4 39 -9 84 -11 100 -6 41 -6 354 -1 363 3 4 8
40 11 81 4 40 11 96 17 125 5 28 12 63 14 78 10 53 74 265 106 348 207 539
650 1002 1189 1240 96 43 307 116 363 126 17 2 33 7 37 9 5 3 88 18 220 40 19
3 87 8 150 11 63 4 116 8 118 9 1 1 12 1 25 -1 12 -2 72 -6 132 -8z"/>
<path d="M3734 3898 c-38 -45 -78 -91 -89 -103 -11 -11 -76 -85 -145 -165 -68
-80 -138 -160 -155 -178 -51 -57 -51 -59 2 -112 l49 -49 30 27 c17 15 49 43
72 62 210 180 481 416 481 421 2 9 -98 117 -138 148 l-38 31 -69 -82z"/>
<path d="M2415 3483 c-103 -10 -199 -28 -276 -53 -416 -136 -702 -532 -700
-970 1 -211 67 -423 185 -590 52 -75 197 -214 275 -264 362 -236 824 -222
1171 34 257 190 409 492 411 816 0 91 -3 124 -22 219 -87 423 -457 758 -884
800 -94 9 -128 11 -160 8z m254 -232 c292 -82 509 -302 586 -594 20 -74 26
-253 12 -341 -39 -246 -224 -486 -459 -596 -225 -106 -499 -102 -719 10 -282
144 -452 432 -444 750 2 58 6 119 9 135 68 331 324 584 656 650 94 18 269 12
359 -14z"/>
<path d="M2398 2653 c-61 -17 -123 -86 -136 -150 -21 -95 40 -205 127 -234
173 -57 332 115 255 276 -44 94 -145 138 -246 108z"/>
<path d="M1493 1602 c-17 -15 -44 -38 -59 -52 -16 -14 -83 -71 -149 -129 -66
-57 -149 -130 -185 -161 -36 -32 -86 -75 -112 -96 -26 -22 -46 -42 -45 -46 5
-18 96 -118 134 -146 l42 -32 18 23 c24 31 113 134 138 161 11 11 58 66 105
121 47 55 87 102 91 105 11 10 135 155 143 168 5 9 -9 29 -41 62 l-49 49 -31
-27z"/>
</g>
</svg>
