<?xml version="1.0" standalone="no"?>
<!DOCTYPE svg PUBLIC "-//W3C//DTD SVG 20010904//EN"
 "http://www.w3.org/TR/2001/REC-SVG-20010904/DTD/svg10.dtd">
<svg version="1.0" xmlns="http://www.w3.org/2000/svg"
 width="441.000000pt" height="452.000000pt" viewBox="0 0 441.000000 452.000000"
 preserveAspectRatio="xMidYMid meet">
<metadata>
Created by potrace 1.11, written by Peter Selinger 2001-2013
</metadata>
<g transform="translate(0.000000,452.000000) scale(0.100000,-0.100000)"
fill="#000000" stroke="none">
<path d="M2397 4499 c-20 -5 -56 -18 -79 -30 -27 -14 -273 -250 -677 -650
l-636 -628 -340 -1 c-187 0 -366 -4 -399 -10 -112 -18 -190 -76 -237 -175
l-29 -60 0 -685 0 -685 29 -60 c47 -99 125 -157 237 -175 33 -6 213 -10 402
-10 l343 0 632 -628 c713 -709 686 -687 827 -687 97 0 158 29 213 101 78 103
72 -89 75 2139 2 1746 0 1996 -13 2041 -46 159 -186 241 -348 203z m128 -213
c13 -13 26 -39 30 -57 3 -19 4 -909 3 -1979 -3 -1922 -3 -1945 -23 -1985 -26
-52 -58 -64 -111 -40 -26 13 -255 234 -711 689 -579 579 -673 676 -682 711
-15 56 -15 1210 0 1269 10 39 76 108 677 709 668 667 711 706 775 707 10 0 29
-11 42 -24z m-1692 -1343 c-10 -36 -10 -1330 0 -1365 l7 -28 -286 0 -286 0
-29 29 -29 29 0 652 0 652 29 29 29 29 286 0 286 0 -7 -27z"/>
<path d="M3209 2841 c-23 -23 -29 -38 -29 -72 0 -43 2 -45 232 -276 l232 -233
-232 -233 c-229 -231 -232 -234 -232 -276 0 -77 75 -124 143 -90 12 6 122 111
244 232 l223 221 233 -232 c232 -230 234 -232 276 -232 75 0 124 77 90 143 -6
12 -111 122 -232 245 l-222 222 222 223 c121 122 226 232 232 244 33 66 -16
143 -91 143 -40 0 -47 -5 -275 -232 l-233 -232 -223 221 c-122 121 -232 226
-244 232 -40 20 -82 13 -114 -18z"/>
</g>
</svg>
