<?xml version="1.0" standalone="no"?>
<!DOCTYPE svg PUBLIC "-//W3C//DTD SVG 20010904//EN"
 "http://www.w3.org/TR/2001/REC-SVG-20010904/DTD/svg10.dtd">
<svg version="1.0" xmlns="http://www.w3.org/2000/svg"
 width="472.000000pt" height="512.000000pt" viewBox="0 0 472.000000 512.000000"
 preserveAspectRatio="xMidYMid meet">
<metadata>
Created by potrace 1.11, written by Peter Selinger 2001-2013
</metadata>
<g transform="translate(0.000000,512.000000) scale(0.100000,-0.100000)"
fill="#000000" stroke="none">
<path d="M3470 5113 c-315 -54 -559 -262 -660 -563 -28 -83 -35 -133 -35 -250
0 -110 7 -163 36 -251 89 -281 336 -498 633 -555 52 -10 211 -12 270 -3 311
49 573 280 661 582 25 85 26 96 29 207 11 381 -244 719 -614 815 -62 16 -264
28 -320 18z m255 -214 c28 -6 88 -29 135 -51 163 -78 299 -254 330 -428 37
-206 -23 -402 -164 -546 -120 -120 -268 -184 -431 -185 -106 0 -173 15 -270
61 -415 199 -472 754 -107 1038 140 109 327 149 507 111z"/>
<path d="M1851 4998 c-190 -47 -333 -154 -430 -323 -29 -50 -59 -126 -66 -165
-3 -17 -8 -45 -11 -62 -8 -41 -7 -149 1 -203 29 -190 172 -389 342 -478 237
-123 522 -99 722 61 69 56 77 64 128 132 247 332 124 817 -252 990 -44 21
-102 43 -130 50 -81 20 -220 19 -304 -2z m292 -210 c111 -36 209 -117 260
-213 37 -70 47 -108 54 -196 10 -141 -36 -257 -140 -360 -236 -231 -647 -128
-752 189 -63 192 14 416 182 527 112 73 270 95 396 53z"/>
<path d="M563 4785 c-161 -58 -272 -168 -326 -324 -27 -79 -30 -214 -7 -297
107 -373 576 -498 849 -225 203 203 204 519 1 721 -105 105 -210 147 -362 147
-72 0 -108 -5 -155 -22z m255 -194 c99 -29 177 -119 201 -231 45 -212 -152
-405 -363 -355 -68 15 -108 37 -152 83 -116 120 -116 309 1 427 82 81 196 109
313 76z"/>
<path d="M606 3572 c-144 -24 -268 -85 -374 -185 -120 -114 -202 -273 -220
-431 -4 -33 -7 -350 -7 -703 0 -634 1 -642 21 -670 12 -15 34 -33 51 -38 19
-6 224 -10 542 -10 l511 0 0 -258 c0 -292 5 -317 63 -342 28 -11 121 -14 498
-14 255 0 487 0 515 -1 l51 0 0 -421 c0 -403 1 -422 20 -447 11 -15 31 -33 44
-39 19 -10 279 -13 1164 -13 1065 0 1142 1 1175 18 23 11 39 28 45 48 10 32
12 1987 2 2029 -2 11 -8 40 -12 65 -63 393 -343 750 -712 908 -111 47 -191 72
-278 86 -16 2 -50 8 -75 11 -73 12 -260 7 -350 -9 -161 -29 -345 -98 -441
-166 -35 -26 -46 -25 -55 3 -11 36 -87 148 -140 206 -102 113 -256 206 -414
252 -116 33 -313 34 -440 2 -147 -37 -279 -110 -394 -218 -21 -20 -39 -35 -40
-33 -16 31 -89 130 -120 162 -159 166 -404 247 -630 208z m275 -222 c111 -37
221 -124 277 -219 14 -24 38 -80 54 -125 33 -94 51 -116 104 -123 48 -6 78 15
129 90 189 281 538 379 842 238 163 -76 275 -201 343 -380 38 -101 62 -128
116 -135 26 -2 47 8 118 61 202 150 412 217 651 208 61 -2 126 -7 145 -10 368
-66 674 -326 793 -675 56 -164 55 -158 56 -1155 l1 -920 -1023 0 -1024 0 0
415 c-1 267 -5 425 -12 442 -5 15 -22 35 -38 45 -25 17 -64 18 -545 19 -285 0
-521 4 -525 8 -4 4 -8 125 -8 269 0 236 -2 266 -18 290 -10 16 -29 32 -43 37
-15 6 -239 10 -545 10 l-519 0 0 593 c0 643 0 645 57 765 32 68 136 176 208
216 117 65 276 79 406 36z"/>
</g>
</svg>
