<?xml version="1.0" standalone="no"?>
<!DOCTYPE svg PUBLIC "-//W3C//DTD SVG 20010904//EN"
 "http://www.w3.org/TR/2001/REC-SVG-20010904/DTD/svg10.dtd">
<svg version="1.0" xmlns="http://www.w3.org/2000/svg"
 width="473.000000pt" height="509.000000pt" viewBox="0 0 473.000000 509.000000"
 preserveAspectRatio="xMidYMid meet">
<metadata>
Created by potrace 1.11, written by Peter Selinger 2001-2013
</metadata>
<g transform="translate(0.000000,509.000000) scale(0.100000,-0.100000)"
fill="#000000" stroke="none">
<path d="M3473 5079 c-394 -36 -694 -377 -678 -769 5 -114 10 -145 39 -225 40
-110 95 -196 180 -281 155 -154 340 -226 556 -219 104 4 119 7 194 31 317 103
524 383 524 710 0 167 -39 299 -130 430 -154 225 -413 347 -685 323z"/>
<path d="M1880 4879 c-277 -45 -478 -291 -464 -569 7 -151 55 -260 159 -365
288 -290 764 -185 912 202 34 89 40 227 14 323 -74 275 -345 453 -621 409z"/>
<path d="M570 4671 c-211 -56 -347 -245 -335 -466 12 -222 192 -404 416 -422
131 -10 262 38 355 131 177 177 177 458 1 637 -114 117 -279 162 -437 120z"/>
<path d="M569 3524 c-277 -41 -472 -229 -549 -530 -19 -73 -20 -112 -20 -746
l0 -668 590 0 c465 0 590 -3 591 -12 1 -7 2 -137 3 -290 0 -152 3 -279 6 -282
3 -3 269 -6 590 -7 l585 -1 0 -494 0 -494 1177 0 c935 0 1178 3 1179 13 0 6 2
480 2 1052 2 780 -1 1060 -10 1121 -34 226 -150 449 -323 625 -228 232 -474
330 -812 323 -145 -2 -182 -6 -303 -30 -178 -36 -306 -92 -462 -206 -29 -21
-56 -38 -60 -38 -4 0 -21 23 -38 51 -39 66 -163 192 -246 251 -55 39 -165 98
-244 129 -108 44 -337 48 -479 10 -112 -30 -237 -93 -333 -167 l-81 -64 -12
38 c-19 58 -77 160 -123 215 -135 160 -376 237 -628 201z"/>
</g>
</svg>
