<?xml version="1.0" standalone="no"?>
<!DOCTYPE svg PUBLIC "-//W3C//DTD SVG 20010904//EN"
 "http://www.w3.org/TR/2001/REC-SVG-20010904/DTD/svg10.dtd">
<svg version="1.0" xmlns="http://www.w3.org/2000/svg"
 width="390.000000pt" height="512.000000pt" viewBox="0 0 390.000000 512.000000"
 preserveAspectRatio="xMidYMid meet">
<metadata>
Created by potrace 1.11, written by Peter Selinger 2001-2013
</metadata>
<g transform="translate(0.000000,512.000000) scale(0.100000,-0.100000)"
fill="#000000" stroke="none">
<path d="M0 2560 l0 -2560 1950 0 1950 0 0 1813 0 1812 -748 748 -747 747
-1203 0 -1202 0 0 -2560z m2258 1638 l2 -718 715 0 715 0 0 -1640 0 -1640
-1740 0 -1740 0 0 2360 0 2360 1023 -2 1022 -3 3 -717z m747 32 l540 -540
-543 0 -542 0 0 540 c0 297 1 540 3 540 1 0 245 -243 542 -540z"/>
<path d="M1035 2606 c-5 -3 -27 -7 -47 -11 l-38 -6 0 -579 0 -580 90 0 90 0 0
230 0 230 48 0 c26 0 70 6 98 14 187 50 284 190 272 394 -6 101 -36 170 -98
225 -71 63 -122 79 -275 83 -71 2 -134 2 -140 0z m252 -172 c53 -40 67 -70 71
-151 7 -122 -24 -188 -102 -224 -23 -10 -60 -19 -83 -19 l-43 0 0 203 c0 112
3 207 8 211 14 15 121 0 149 -20z"/>
<path d="M1785 2605 c-5 -2 -27 -6 -47 -10 l-38 -6 0 -573 c0 -514 2 -574 16
-580 30 -11 259 -6 309 8 162 43 259 150 312 346 25 92 25 397 0 488 -50 183
-149 288 -305 321 -48 10 -222 14 -247 6z m228 -160 c52 -21 104 -89 128 -165
45 -142 34 -433 -22 -560 -38 -86 -113 -140 -194 -140 l-45 0 0 440 0 440 49
0 c27 0 64 -7 84 -15z"/>
<path d="M2515 2598 c-3 -7 -4 -272 -3 -588 l3 -575 93 -3 92 -3 0 256 0 255
140 0 141 0 -3 78 -3 77 -137 3 -138 3 0 169 0 169 148 3 147 3 0 80 0 80
-238 3 c-185 2 -239 0 -242 -10z"/>
</g>
</svg>
