<?xml version="1.0" standalone="no"?>
<!DOCTYPE svg PUBLIC "-//W3C//DTD SVG 20010904//EN"
 "http://www.w3.org/TR/2001/REC-SVG-20010904/DTD/svg10.dtd">
<svg version="1.0" xmlns="http://www.w3.org/2000/svg"
 width="512.000000pt" height="380.000000pt" viewBox="0 0 512.000000 380.000000"
 preserveAspectRatio="xMidYMid meet">
<metadata>
Created by potrace 1.11, written by Peter Selinger 2001-2013
</metadata>
<g transform="translate(0.000000,380.000000) scale(0.100000,-0.100000)"
fill="#000000" stroke="none">
<path d="M1679 3786 c-81 -29 -121 -72 -242 -257 -42 -64 -82 -121 -90 -127
-9 -8 -177 -12 -563 -14 l-549 -3 -52 -24 c-69 -31 -134 -102 -162 -175 l-21
-57 2 -1447 3 -1447 25 -49 c32 -62 84 -114 146 -146 l49 -25 2335 0 2335 0
49 25 c62 32 114 84 146 146 l25 49 3 1447 2 1447 -21 57 c-28 73 -93 144
-162 175 l-52 24 -549 3 c-384 2 -554 6 -563 14 -8 6 -51 68 -97 138 -101 153
-135 193 -195 228 l-46 27 -860 2 c-686 2 -867 0 -896 -11z m1739 -233 c16
-21 60 -85 98 -143 74 -113 132 -178 185 -207 32 -17 76 -18 597 -23 l564 -5
23 -27 c13 -15 26 -47 30 -70 3 -24 5 -662 3 -1418 -3 -1492 0 -1401 -57
-1432 -36 -19 -4566 -19 -4602 0 -57 31 -54 -60 -57 1432 -2 756 0 1394 3
1418 4 23 17 55 30 70 l23 27 564 5 c521 5 565 6 597 23 53 29 111 94 185 207
38 58 82 122 98 143 l30 37 828 0 828 0 30 -37z"/>
<path d="M2345 3165 c-314 -58 -580 -204 -776 -427 -179 -203 -284 -427 -324
-690 -84 -552 198 -1108 695 -1372 223 -118 493 -172 738 -147 335 34 606 164
835 400 367 380 476 926 282 1416 -110 277 -314 512 -577 662 -206 118 -422
174 -668 172 -74 -1 -166 -7 -205 -14z m342 -196 c706 -78 1162 -790 941
-1469 -51 -158 -136 -297 -263 -428 -144 -150 -323 -256 -523 -310 -88 -23
-114 -26 -282 -26 -168 0 -194 3 -282 26 -200 54 -379 160 -523 310 -192 198
-291 416 -315 688 -46 534 298 1029 815 1175 147 41 276 52 432 34z"/>
<path d="M2392 2760 c-122 -22 -272 -89 -384 -172 -162 -119 -284 -301 -340
-503 -30 -111 -32 -335 -4 -445 88 -342 332 -589 673 -682 63 -17 106 -21 223
-21 117 0 160 4 223 21 341 93 585 340 673 682 28 110 26 334 -4 445 -56 203
-178 383 -341 505 -78 57 -227 131 -316 155 -71 19 -324 29 -403 15z m306
-206 c339 -70 576 -358 575 -699 -1 -222 -87 -407 -258 -553 -253 -216 -657
-216 -910 0 -171 146 -257 331 -258 553 -1 448 414 789 851 699z"/>
<path d="M780 2871 c-186 -40 -221 -283 -54 -378 33 -19 54 -23 142 -23 73 0
114 5 136 15 148 70 160 279 21 361 -34 20 -60 26 -127 29 -45 2 -99 1 -118
-4z"/>
</g>
</svg>
