<?xml version="1.0" standalone="no"?>
<!DOCTYPE svg PUBLIC "-//W3C//DTD SVG 20010904//EN"
 "http://www.w3.org/TR/2001/REC-SVG-20010904/DTD/svg10.dtd">
<svg version="1.0" xmlns="http://www.w3.org/2000/svg"
 width="512.000000pt" height="411.000000pt" viewBox="0 0 512.000000 411.000000"
 preserveAspectRatio="xMidYMid meet">
<metadata>
Created by potrace 1.11, written by Peter Selinger 2001-2013
</metadata>
<g transform="translate(0.000000,411.000000) scale(0.100000,-0.100000)"
fill="#000000" stroke="none">
<path d="M1348 4077 c-169 -58 -278 -180 -363 -408 l-29 -77 -180 -5 c-206 -6
-256 -16 -386 -80 -67 -33 -103 -59 -171 -127 -95 -94 -145 -174 -188 -298
l-26 -77 -3 -1170 c-2 -1041 -1 -1179 13 -1249 45 -222 181 -403 376 -501 174
-87 -6 -80 2169 -80 2175 0 1995 -7 2169 80 195 98 331 279 376 501 14 70 15
208 13 1249 l-3 1170 -26 77 c-43 124 -93 204 -188 298 -123 122 -258 186
-437 206 l-62 6 -4 74 c-3 60 -8 78 -26 96 l-23 23 -399 3 -399 3 -33 -30
c-30 -26 -33 -34 -36 -100 l-4 -71 -168 0 -168 0 -32 83 c-84 210 -169 314
-317 385 l-78 37 -650 2 -650 3 -67 -23z m1354 -199 c56 -25 137 -106 168
-168 15 -30 44 -100 65 -155 21 -55 45 -111 54 -124 33 -51 28 -51 784 -51
766 0 763 0 871 -58 67 -35 177 -145 209 -207 14 -28 34 -78 44 -110 17 -57
18 -122 18 -1210 l0 -1150 -22 -70 c-28 -88 -84 -177 -149 -234 -58 -52 -168
-107 -243 -121 -74 -14 -3808 -14 -3882 0 -75 14 -185 69 -243 121 -65 57
-121 146 -149 234 l-22 70 0 1150 c0 1088 1 1153 18 1210 51 165 161 285 319
348 47 18 81 21 285 26 l232 6 29 28 c19 18 42 62 62 115 75 199 122 277 197
323 76 47 91 48 723 46 535 -2 599 -4 632 -19z"/>
<path d="M610 1745 l0 -1225 1538 2 1537 3 3 1223 2 1222 -1540 0 -1540 0 0
-1225z m2870 5 l0 -1020 -213 0 -214 0 -12 42 c-7 23 -28 65 -45 93 -68 106
-180 180 -426 280 -159 65 -175 78 -183 155 -6 58 -5 65 32 133 21 40 44 90
51 112 7 22 24 51 38 65 57 57 87 188 60 265 -11 33 -12 49 -1 95 21 89 27
240 14 312 -26 130 -106 236 -209 274 -26 10 -65 31 -86 46 -113 81 -370 82
-528 2 -67 -34 -148 -111 -181 -172 -57 -106 -76 -278 -47 -438 10 -55 10 -79
1 -104 -28 -81 -4 -208 51 -274 18 -22 40 -62 50 -88 9 -27 31 -71 47 -99 27
-42 31 -59 31 -118 0 -62 -3 -72 -25 -89 -24 -19 -122 -64 -287 -132 -160 -66
-267 -156 -324 -275 -19 -38 -34 -75 -34 -82 0 -10 -27 -13 -110 -13 l-110 0
0 1025 0 1025 1330 0 1330 0 0 -1020z m-1349 700 c19 -6 46 -21 59 -35 13 -13
46 -31 74 -39 56 -16 88 -44 105 -89 19 -49 13 -212 -11 -310 -19 -77 -20 -93
-9 -120 28 -68 26 -86 -12 -121 -23 -21 -39 -47 -46 -77 -16 -61 -36 -105 -78
-166 l-35 -51 4 -124 c3 -101 7 -130 25 -164 42 -78 125 -135 300 -205 160
-63 241 -109 289 -163 l47 -51 -424 -6 c-608 -9 -1159 -10 -1159 -3 0 4 9 22
21 40 26 43 117 103 216 144 282 116 347 156 393 245 23 45 25 60 25 176 0
127 0 127 -31 165 -38 48 -59 89 -69 134 -12 54 -35 97 -61 110 -31 17 -39 56
-18 87 21 33 22 78 1 187 -48 252 14 394 190 435 53 12 161 13 204 1z"/>
<path d="M4215 2953 c-74 -39 -115 -104 -115 -184 0 -241 346 -277 399 -40 19
88 -30 186 -115 226 -41 19 -130 19 -169 -2z"/>
<path d="M4252 2250 c-143 -35 -201 -217 -104 -332 56 -67 161 -87 242 -45
110 56 145 187 79 294 -39 62 -141 102 -217 83z"/>
<path d="M4237 1530 c-155 -47 -186 -274 -49 -361 58 -37 104 -45 161 -30 95
25 152 100 152 196 0 141 -128 236 -264 195z"/>
</g>
</svg>
