<?xml version="1.0" standalone="no"?>
<!DOCTYPE svg PUBLIC "-//W3C//DTD SVG 20010904//EN"
 "http://www.w3.org/TR/2001/REC-SVG-20010904/DTD/svg10.dtd">
<svg version="1.0" xmlns="http://www.w3.org/2000/svg"
 width="512.000000pt" height="512.000000pt" viewBox="0 0 512.000000 512.000000"
 preserveAspectRatio="xMidYMid meet">
<metadata>
Created by potrace 1.11, written by Peter Selinger 2001-2013
</metadata>
<g transform="translate(0.000000,512.000000) scale(0.100000,-0.100000)"
fill="#000000" stroke="none">
<path d="M3288 5097 c-80 -30 121 166 -2115 -2056 -1263 -1254 -1180 -1162
-1171 -1305 3 -46 13 -87 28 -116 25 -50 347 -382 394 -407 41 -21 82 -12 155
36 191 123 391 121 559 -7 132 -99 202 -255 188 -419 -7 -87 -33 -160 -86
-237 -46 -67 -55 -94 -45 -134 9 -39 343 -372 409 -409 45 -25 61 -28 136 -28
76 0 91 3 138 30 65 38 3169 3135 3210 3205 23 39 27 56 27 125 0 64 -5 89
-24 125 -26 50 -349 383 -395 407 -40 21 -83 12 -148 -32 -147 -97 -321 -111
-476 -37 -31 14 -84 53 -119 85 -170 160 -200 409 -72 607 48 74 57 115 36
156 -25 47 -357 369 -407 394 -56 29 -168 37 -222 17z m125 -198 c12 -6 81
-69 152 -140 l131 -130 -32 -66 c-93 -192 -88 -421 14 -618 55 -106 182 -230
292 -283 114 -56 185 -73 305 -74 114 0 195 17 298 64 l68 32 125 -125 c138
-137 159 -165 145 -201 -5 -13 -137 -150 -293 -305 -222 -222 -286 -280 -298
-273 -8 5 -32 10 -53 10 -71 0 -119 -80 -86 -142 10 -19 -94 -126 -1192 -1224
-836 -836 -1212 -1205 -1230 -1209 -42 -9 -73 13 -207 148 l-124 124 31 61
c50 99 73 201 73 317 -1 119 -18 192 -71 300 -69 140 -170 240 -316 310 -106
51 -179 68 -295 68 -101 0 -186 -21 -293 -70 l-78 -37 -125 125 c-137 135
-158 166 -149 208 4 20 355 375 1211 1225 957 952 1208 1196 1222 1190 9 -4
33 -9 53 -11 50 -6 99 39 99 92 0 20 -4 44 -9 54 -8 14 38 65 272 298 155 154
289 283 297 286 24 9 40 8 63 -4z"/>
<path d="M2909 4049 c-32 -35 -37 -74 -15 -117 16 -29 135 -149 176 -176 38
-25 83 -20 119 13 25 24 31 37 31 72 0 41 -4 47 -98 141 -94 94 -100 98 -141
98 -35 0 -48 -6 -72 -31z"/>
<path d="M3341 3619 c-33 -33 -40 -72 -20 -112 16 -32 149 -166 181 -183 72
-38 148 7 148 87 0 41 -5 47 -98 141 -92 92 -101 98 -139 98 -33 0 -48 -6 -72
-31z"/>
<path d="M3794 3209 c-44 -22 -66 -88 -43 -132 16 -32 149 -166 181 -183 66
-35 138 -3 152 69 8 42 -12 73 -113 170 -77 74 -95 87 -123 86 -18 0 -42 -5
-54 -10z"/>
</g>
</svg>
