<?xml version="1.0" standalone="no"?>
<!DOCTYPE svg PUBLIC "-//W3C//DTD SVG 20010904//EN"
 "http://www.w3.org/TR/2001/REC-SVG-20010904/DTD/svg10.dtd">
<svg version="1.0" xmlns="http://www.w3.org/2000/svg"
 width="505.000000pt" height="410.000000pt" viewBox="0 0 505.000000 410.000000"
 preserveAspectRatio="xMidYMid meet">
<metadata>
Created by potrace 1.11, written by Peter Selinger 2001-2013
</metadata>
<g transform="translate(0.000000,410.000000) scale(0.100000,-0.100000)"
fill="#000000" stroke="none">
<path d="M3418 4095 c-2 -2 -34 -6 -72 -9 -69 -7 -212 -49 -296 -87 -143 -66
-324 -221 -411 -354 -84 -127 -148 -282 -164 -400 -3 -22 -8 -51 -11 -64 -7
-30 -6 -207 1 -241 3 -14 8 -45 11 -68 l6 -44 -84 6 c-226 18 -461 65 -688
140 -507 166 -965 476 -1326 897 l-31 36 -33 -66 c-69 -139 -102 -286 -102
-451 -1 -214 52 -393 168 -572 47 -71 174 -208 244 -261 l35 -27 -61 5 c-106
8 -244 45 -336 91 -73 37 -69 46 -53 -120 3 -33 8 -62 10 -66 2 -3 6 -19 9
-34 9 -50 47 -155 81 -224 94 -191 267 -364 460 -460 81 -40 193 -82 219 -82
18 0 30 -16 13 -18 -7 0 -50 -7 -97 -14 -90 -14 -188 -16 -283 -4 -58 7 -59 7
-52 -16 17 -56 79 -176 127 -246 164 -236 428 -399 708 -438 30 -4 70 -7 89
-7 l35 1 -25 -19 c-122 -97 -369 -235 -524 -292 -80 -30 -265 -83 -320 -91
-21 -4 -40 -8 -44 -10 -3 -2 -38 -7 -76 -11 -39 -4 -73 -9 -77 -12 -14 -8
-331 -11 -390 -4 -55 7 -78 -2 -40 -16 9 -4 45 -24 80 -45 226 -138 600 -281
867 -333 70 -13 193 -34 235 -39 227 -28 587 -27 785 4 33 5 82 11 109 15 27
3 52 8 56 10 3 2 23 6 45 9 22 4 90 20 150 36 61 17 120 32 133 35 72 17 236
82 399 160 434 208 829 554 1106 970 26 39 50 75 55 80 4 6 28 46 54 90 273
476 413 985 413 1500 l0 140 105 86 c116 95 261 246 341 354 28 39 56 76 62
83 6 7 -20 2 -59 -13 -67 -26 -173 -62 -204 -70 -125 -33 -301 -67 -308 -61
-1 2 23 20 54 41 73 51 194 172 243 244 47 68 110 184 121 220 4 14 11 33 15
42 4 11 -37 -4 -122 -47 -121 -60 -323 -138 -385 -149 -16 -3 -54 -12 -85 -20
l-56 -15 -51 48 c-71 66 -142 116 -228 160 -110 57 -148 70 -283 98 -59 13
-259 26 -267 19z"/>
</g>
</svg>
