<?xml version="1.0" standalone="no"?>
<!DOCTYPE svg PUBLIC "-//W3C//DTD SVG 20010904//EN"
 "http://www.w3.org/TR/2001/REC-SVG-20010904/DTD/svg10.dtd">
<svg version="1.0" xmlns="http://www.w3.org/2000/svg"
 width="512.000000pt" height="421.000000pt" viewBox="0 0 512.000000 421.000000"
 preserveAspectRatio="xMidYMid meet">
<metadata>
Created by potrace 1.11, written by Peter Selinger 2001-2013
</metadata>
<g transform="translate(0.000000,421.000000) scale(0.100000,-0.100000)"
fill="#000000" stroke="none">
<path d="M3398 4205 c-2 -1 -27 -6 -57 -9 -140 -17 -319 -87 -461 -181 -90
-60 -207 -175 -275 -270 -56 -78 -145 -248 -145 -277 0 -8 -4 -18 -9 -24 -5
-5 -12 -22 -15 -39 -3 -16 -13 -64 -22 -105 -8 -42 -16 -129 -16 -198 l-1
-122 -36 5 c-20 3 -54 7 -76 10 -65 7 -163 26 -270 52 -556 133 -1096 468
-1465 909 -52 62 -99 78 -154 53 -43 -20 -142 -236 -162 -353 -2 -17 -7 -38
-10 -47 -14 -47 -21 -274 -11 -324 3 -11 8 -40 11 -65 18 -115 88 -294 159
-407 15 -24 27 -45 27 -48 0 -3 -17 4 -37 15 -66 35 -135 21 -161 -33 -31 -64
-5 -275 54 -437 67 -188 190 -359 354 -493 42 -34 43 -37 20 -37 -28 0 -63
-25 -78 -55 -14 -29 -8 -71 23 -150 81 -204 227 -381 422 -511 82 -55 215
-119 272 -130 17 -4 31 -10 31 -15 0 -15 -238 -125 -351 -163 -104 -34 -211
-62 -279 -72 -19 -3 -46 -7 -60 -10 -97 -17 -331 -23 -454 -11 -84 7 -128 -8
-151 -52 -19 -38 -12 -84 18 -115 47 -49 303 -186 485 -261 189 -77 436 -150
572 -170 24 -4 47 -8 50 -10 4 -2 29 -7 56 -10 27 -3 58 -8 69 -10 128 -26
631 -27 785 0 14 2 46 6 72 9 26 3 94 15 150 26 446 91 843 271 1188 538 229
178 438 400 608 646 301 434 489 943 538 1451 10 113 12 150 13 255 l1 106 52
39 c149 113 428 435 442 511 14 69 -49 130 -118 114 -17 -4 -68 -22 -113 -39
l-83 -30 39 57 c52 77 82 134 114 215 36 90 35 130 -2 168 -40 39 -88 39 -161
-1 -50 -28 -111 -58 -199 -97 -55 -25 -171 -64 -245 -84 l-69 -18 -73 60 c-40
32 -76 59 -80 59 -4 0 -15 6 -23 14 -53 48 -278 137 -400 157 -60 11 -295 21
-303 14z m346 -235 c147 -41 262 -106 390 -219 55 -48 76 -61 102 -61 44 0
209 41 317 78 72 26 86 28 78 14 -15 -27 -118 -127 -168 -164 -90 -65 -123
-102 -123 -141 0 -43 38 -92 77 -100 24 -4 57 -1 178 19 17 3 46 9 65 14 19 6
40 10 45 10 13 -1 -114 -118 -190 -177 -100 -76 -99 -74 -101 -253 -3 -168 -7
-237 -24 -363 -17 -123 -24 -162 -55 -293 -76 -313 -223 -646 -408 -924 -39
-58 -73 -107 -76 -110 -3 -3 -25 -30 -48 -61 -88 -119 -306 -342 -416 -426
-34 -26 -68 -53 -76 -61 -31 -30 -273 -183 -363 -230 -203 -105 -428 -186
-651 -236 -99 -23 -164 -34 -297 -51 -235 -30 -579 -22 -815 20 -44 8 -92 16
-106 19 -112 19 -395 109 -502 160 -44 20 -48 24 -25 25 44 2 264 41 333 60
250 68 471 171 683 318 103 72 126 100 125 151 -2 53 -44 89 -113 97 -114 12
-137 16 -208 36 -152 40 -279 115 -398 233 -67 66 -160 193 -149 204 2 2 41 6
87 9 82 4 189 24 238 43 46 19 72 89 49 132 -15 28 -49 57 -68 58 -55 1 -333
123 -361 159 -3 4 -31 28 -63 55 -113 96 -224 272 -268 425 -30 104 -32 102
59 75 138 -39 271 -48 315 -19 66 43 53 127 -29 189 -112 85 -201 189 -268
310 -27 48 -74 179 -83 226 -2 14 -7 39 -12 55 -16 63 -5 271 20 369 26 100
17 101 140 -20 135 -132 116 -115 222 -201 364 -293 827 -513 1257 -597 14 -3
36 -7 50 -10 88 -20 327 -47 408 -48 40 0 77 23 97 62 8 16 15 31 14 32 -14
40 -26 169 -24 263 6 282 135 530 365 702 215 161 515 216 774 143z"/>
</g>
</svg>
