<?xml version="1.0" encoding="UTF-8"?>
<!-- Generated by Pixelmator Pro 3.3.6 -->
<svg width="180" height="180" viewBox="0 0 180 180" xmlns="http://www.w3.org/2000/svg">
    <path id="Rectangle" fill="#020617" fill-rule="evenodd" stroke="none" d="M 0 140.399994 C 0 154.975143 0 162.262711 3.060096 167.726913 C 5.2228 171.588699 8.411304 174.777206 12.27309 176.939911 C 17.737284 180 25.024857 180 39.599998 180 L 140.399994 180 C 154.975143 180 162.262711 180 167.726898 176.939911 C 171.588684 174.777206 174.777191 171.588699 176.939896 167.726913 C 179.999985 162.262711 179.999985 154.975143 179.999985 140.399994 L 180 39.600006 C 180 25.024857 180 17.737289 176.939911 12.273102 C 174.777206 8.411316 171.588699 5.222809 167.726913 3.060104 C 162.262726 1.5e-05 154.975143 1.5e-05 140.400009 1.5e-05 L 39.599998 0 C 25.024855 0 17.737284 0 12.273088 3.060089 C 8.411303 5.222794 5.222798 8.411301 3.060094 12.273087 C -2e-06 17.737274 -2e-06 25.024857 -2e-06 39.599991 Z"/>
    <path id="TM" fill="#fafafa" fill-rule="evenodd" stroke="none" d="M 89.487999 57.167999 L 104.975998 57.167999 L 122.311996 106.360001 L 122.487999 106.360001 L 139.384003 57.167999 L 154.695999 57.167999 L 154.695999 120 L 144.223999 120 L 144.223999 71.512001 L 144.048004 71.512001 L 126.624001 120 L 117.559998 120 L 100.136002 71.512001 L 99.959999 71.512001 L 99.959999 120 L 89.487999 120 Z M 21.816 57.167999 L 72.68 57.167999 L 72.68 66.671997 L 52.703999 66.671997 L 52.703999 120 L 41.703999 120 L 41.703999 66.671997 L 21.816 66.671997 Z"/>
</svg>
